<svg height="1065pt" viewBox="-33 -68 1065.0002 1065" width="1065pt" xmlns="http://www.w3.org/2000/svg"><path d="m27.058594 925.253906c-17.957032 0-32.046875-15.75-28.65625-35.195312l30.808594-215.609375 31.125-217.511719c2.074218-14.589844 14.589843-25.117188 28.914062-25.101562l152.332031-.042969c7.460938-68.03125 14.921875-136.058594 22.324219-204.101563.648438-15.574218 13.484375-28.003906 29.226562-28.003906h127.667969v-31.0625c0-95.140625 77.730469-172.871094 172.863281-172.871094 95.140626 0 172.863282 77.742188 172.863282 172.871094v31.0625l127.59375.058594c14.75-.011719 27.429687 11.117187 29.03125 26.105468 24.257812 221.648438 48.546875 443.304688 72.828125 664.957032 2.773437 19.277344-11.121094 34.445312-28.800781 34.445312-313.429688 0-626.6875 0-940.121094 0zm901.140625-117.023437h-324.398438l8.359375 58.519531h322.449219zm-332.753907-58.515625h326.339844c-17.941406-163.839844-35.890625-327.683594-53.828125-491.523438h-101.429687v49.804688c0 16.15625-13.089844 29.261718-29.246094 29.261718-16.164062 0-29.265625-13.105468-29.265625-29.261718v-49.804688h-228.703125v49.804688c0 16.15625-13.09375 29.261718-29.261719 29.261718-16.152343 0-29.25-13.105468-29.25-29.261718v-49.804688h-101.488281l-18.992188 173.601563h224.269532c15.347656 0 27.925781 11.800781 29.160156 26.828125zm-206.574218-211.765625c0 44.992187-36.925782 81.917969-81.929688 81.917969-44.992187 0-81.914062-36.914063-81.914062-81.917969 0-16.164063-13.101563-29.265625-29.253906-29.265625-16.164063 0-29.265626 13.101562-29.265626 29.265625 0 77.304687 63.148438 140.433593 140.433594 140.433593 77.304688 0 140.4375-63.128906 140.4375-140.433593 0-16.164063-13.089844-29.265625-29.25-29.265625-16.164062 0-29.257812 13.101562-29.257812 29.265625zm-274.300782-47.648438-53.835937 376.433594h492.421875l-53.871094-376.433594zm364.742188-290.613281h228.703125v-31.0625c0-62.828125-51.523437-114.351562-114.351563-114.351562-62.835937 0-114.351562 51.523437-114.351562 114.351562zm0 0" fill-rule="evenodd"/></svg>